<svg height="512pt" viewBox="0 -75 512.00261 512" width="512pt" xmlns="http://www.w3.org/2000/svg"><path d="m155.050781 7.496094h-53.339843c-8.625 0-15.617188 6.992187-15.617188 15.617187v40.890625h84.574219v-40.890625c0-8.625-6.992188-15.617187-15.617188-15.617187zm0 0" fill="#4b3f4e"/><path d="m356.949219 7.496094h53.339843c8.625 0 15.617188 6.992187 15.617188 15.617187v40.890625h-84.574219v-40.890625c0-8.625 6.992188-15.617187 15.617188-15.617187zm0 0" fill="#4b3f4e"/><path d="m451.398438 58.066406c-5.257813-9.117187-14.96875-14.738281-25.492188-14.738281h-84.574219c-7.300781 0-14.339843 2.714844-19.75 7.621094l-4.421875 4.007812c-5.410156 4.902344-12.449218 7.617188-19.75 7.617188h-82.820312c-7.300782 0-14.339844-2.714844-19.75-7.617188l-4.421875-4.007812c-5.410157-4.902344-12.449219-7.621094-19.75-7.621094h-84.574219c-10.523438 0-20.234375 5.621094-25.492188 14.738281-17.371093 30.136719-53.105468 105.0625-53.105468 211.539063 0 122.226562 98.519531 103.019531 156.539062 8.71875 5.367188-8.726563 14.890625-14.027344 25.136719-14.027344h133.660156c10.242188 0 19.769531 5.300781 25.136719 14.027344 58.019531 94.300781 156.539062 113.507812 156.539062-8.71875 0-106.476563-35.734374-181.402344-53.109374-211.539063zm0 0" fill="#eceaec"/><path d="m37.496094 269.605469c0-106.476563 35.734375-181.402344 53.109375-211.539063 5.253906-9.117187 14.964843-14.738281 25.488281-14.738281h-30c-10.523438 0-20.234375 5.621094-25.488281 14.738281-17.375 30.136719-53.109375 105.0625-53.109375 211.539063 0 69.445312 31.804687 93.214843 69.914062 83.515625-23.4375-7.21875-39.914062-33.539063-39.914062-83.515625zm0 0" fill="#d2d2d2"/><path d="m286.523438 127.601562c0 16.859376-13.664063 30.523438-30.523438 30.523438-16.855469 0-30.523438-13.664062-30.523438-30.523438 0-16.855468 13.667969-30.523437 30.523438-30.523437 16.859375 0 30.523438 13.667969 30.523438 30.523437zm0 0" fill="#7fda4e"/><path d="m150.207031 143.859375h-10.375c-5.289062 0-9.578125-4.289063-9.578125-9.578125v-10.371094c0-5.292968-4.285156-9.578125-9.574218-9.578125h-12.035157c-5.289062 0-9.574219 4.285157-9.574219 9.578125v10.371094c0 5.289062-4.289062 9.578125-9.578124 9.578125h-10.375c-5.289063 0-9.578126 4.289063-9.578126 9.578125v12.03125c0 5.289062 4.289063 9.578125 9.578126 9.578125h10.371093c5.289063 0 9.578125 4.285156 9.578125 9.574219v10.375c0 5.289062 4.289063 9.578125 9.578125 9.578125h12.03125c5.289063 0 9.578125-4.289063 9.578125-9.578125v-10.375c0-5.289063 4.289063-9.574219 9.578125-9.574219h10.371094c5.292969 0 9.578125-4.289063 9.578125-9.578125v-12.03125c.003906-5.289062-4.285156-9.578125-9.574219-9.578125zm0 0" fill="#4b3f4e"/><path d="m415.796875 125.9375c0 8.699219-7.054687 15.75-15.753906 15.75s-15.753907-7.050781-15.753907-15.75 7.054688-15.753906 15.753907-15.753906 15.753906 7.054687 15.753906 15.753906zm0 0" fill="#ffc261"/><path d="m415.796875 211.292969c0 8.699219-7.054687 15.75-15.753906 15.75s-15.753907-7.050781-15.753907-15.75c0-8.703125 7.054688-15.753907 15.753907-15.753907s15.753906 7.050782 15.753906 15.753907zm0 0" fill="#7fda4e"/><path d="m458.472656 168.613281c0 8.699219-7.050781 15.753907-15.75 15.753907-8.703125 0-15.753906-7.054688-15.753906-15.753907s7.050781-15.753906 15.753906-15.753906c8.699219 0 15.75 7.054687 15.75 15.753906zm0 0" fill="#f55d67"/><path d="m373.117188 168.613281c0 8.699219-7.050782 15.753907-15.753907 15.753907-8.699219 0-15.75-7.054688-15.75-15.753907s7.050781-15.753906 15.75-15.753906c8.703125 0 15.753907 7.054687 15.753907 15.753906zm0 0" fill="#61caff"/><path d="m294.019531 127.609375c0-20.96875-17.058593-38.023437-38.023437-38.023437-20.96875 0-38.023438 17.054687-38.023438 38.023437 0 20.964844 17.054688 38.023437 38.023438 38.023437 20.964844 0 38.023437-17.058593 38.023437-38.023437zm-38.023437 23.023437c-12.695313 0-23.023438-10.328124-23.023438-23.023437s10.328125-23.023437 23.023438-23.023437c12.695312 0 23.023437 10.328124 23.023437 23.023437 0 12.691406-10.328125 23.023437-23.023437 23.023437zm0 0"/><path d="m189.546875 203.1875v10.667969c0 4.144531 3.359375 7.5 7.5 7.5 4.144531 0 7.5-3.355469 7.5-7.5v-10.667969c0-4.140625-3.355469-7.5-7.5-7.5-4.140625 0-7.5 3.359375-7.5 7.5zm0 0"/><path d="m314.941406 195.6875c-4.140625 0-7.5 3.359375-7.5 7.5v10.667969c0 4.144531 3.359375 7.5 7.5 7.5s7.5-3.355469 7.5-7.5v-10.667969c0-4.140625-3.359375-7.5-7.5-7.5zm0 0"/><path d="m264.898438 208.179688c-2.152344 2.460937-5.398438 3.871093-8.902344 3.871093-3.507813 0-6.75-1.410156-8.902344-3.871093-2.726562-3.121094-7.464844-3.4375-10.582031-.710938-3.121094 2.722656-3.4375 7.460938-.710938 10.582031 5 5.71875 12.359375 9 20.195313 9 7.832031 0 15.195312-3.28125 20.195312-9 2.726563-3.117187 2.40625-7.855469-.710937-10.582031-3.121094-2.726562-7.859375-2.410156-10.582031.710938zm0 0"/><path d="m108.636719 212.082031h12.035156c9.414063 0 17.078125-7.660156 17.078125-17.078125v-10.375c0-1.144531.929688-2.078125 2.074219-2.078125h10.375c9.417969 0 17.078125-7.660156 17.078125-17.078125v-12.03125c0-9.417968-7.660156-17.078125-17.078125-17.078125h-10.375c-1.144531 0-2.074219-.929687-2.074219-2.078125v-10.371094c0-9.417968-7.664062-17.078124-17.078125-17.078124h-12.035156c-9.414063 0-17.078125 7.660156-17.078125 17.078124v10.371094c0 1.148438-.929688 2.078125-2.078125 2.078125h-10.371094c-9.417969 0-17.078125 7.664063-17.078125 17.078125v12.03125c0 9.417969 7.660156 17.078125 17.078125 17.078125h10.375c1.144531 0 2.078125.933594 2.078125 2.078125v10.375c0 9.417969 7.660156 17.078125 17.074219 17.078125zm-19.152344-44.53125h-10.375c-1.144531 0-2.078125-.929687-2.078125-2.074219v-12.035156c0-1.144531.933594-2.074218 2.078125-2.074218h10.375c9.414063 0 17.078125-7.664063 17.078125-17.078126v-10.375c0-1.144531.929688-2.078124 2.078125-2.078124h12.03125c1.144531 0 2.078125.933593 2.078125 2.078124v10.375c0 9.414063 7.660156 17.078126 17.078125 17.078126h10.371094c1.148437 0 2.078125.929687 2.078125 2.074218v12.035156c0 1.144532-.929688 2.074219-2.078125 2.074219h-10.371094c-9.417969 0-17.078125 7.664063-17.078125 17.078125v10.375c0 1.144532-.933594 2.078125-2.078125 2.078125h-12.03125c-1.148437 0-2.078125-.933593-2.078125-2.078125v-10.375c0-9.414062-7.664062-17.078125-17.078125-17.078125zm0 0"/><path d="m400.035156 149.195312c12.824219 0 23.253906-10.433593 23.253906-23.253906 0-12.820312-10.429687-23.253906-23.253906-23.253906-12.820312 0-23.25 10.433594-23.25 23.253906 0 12.820313 10.429688 23.253906 23.25 23.253906zm0-31.507812c4.550782 0 8.253906 3.703125 8.253906 8.253906 0 4.550782-3.703124 8.253906-8.253906 8.253906-4.546875 0-8.25-3.703124-8.25-8.253906 0-4.550781 3.703125-8.253906 8.25-8.253906zm0 0"/><path d="m400.035156 234.550781c12.824219 0 23.253906-10.433593 23.253906-23.253906s-10.429687-23.253906-23.253906-23.253906c-12.820312 0-23.25 10.433593-23.25 23.253906s10.429688 23.253906 23.25 23.253906zm0-31.507812c4.550782 0 8.253906 3.703125 8.253906 8.253906s-3.703124 8.25-8.253906 8.25c-4.546875 0-8.25-3.699219-8.25-8.25s3.703125-8.253906 8.25-8.253906zm0 0"/><path d="m442.714844 191.871094c12.820312 0 23.253906-10.429688 23.253906-23.25 0-12.824219-10.433594-23.253906-23.253906-23.253906-12.820313 0-23.253906 10.429687-23.253906 23.253906 0 12.820312 10.433593 23.25 23.253906 23.25zm0-31.503906c4.550781 0 8.253906 3.699218 8.253906 8.25 0 4.550781-3.703125 8.253906-8.253906 8.253906-4.550782 0-8.253906-3.703125-8.253906-8.253906 0-4.550782 3.703124-8.25 8.253906-8.25zm0 0"/><path d="m357.359375 145.367188c-12.820313 0-23.253906 10.429687-23.253906 23.25 0 12.824218 10.433593 23.253906 23.253906 23.253906s23.253906-10.429688 23.253906-23.253906c0-12.820313-10.433593-23.25-23.253906-23.25zm0 31.503906c-4.550781 0-8.253906-3.703125-8.253906-8.25 0-4.550782 3.703125-8.253906 8.253906-8.253906s8.25 3.703124 8.25 8.253906c0 4.546875-3.699219 8.25-8.25 8.25zm0 0"/><path d="m8.140625 243.726562c.179687.011719.359375.015626.539063.015626 3.898437 0 7.191406-3.015626 7.472656-6.964844 6.121094-85.964844 34.546875-146.515625 50.941406-174.960938 3.90625-6.773437 11.183594-10.980468 18.992188-10.980468h84.578124c5.449219 0 10.671876 2.015624 14.710938 5.671874 8.507812 7.710938 17.25 13.570313 29.210938 13.570313h82.816406c9.179687 0 17.984375-3.394531 24.789062-9.5625 5.667969-5.136719 11.027344-9.683594 19.132813-9.683594h84.578125c7.808594 0 15.085937 4.210938 18.992187 10.984375 5.707031 9.90625 11.199219 20.820313 16.316407 32.445313 1.667968 3.789062 6.09375 5.507812 9.882812 3.84375 3.792969-1.667969 5.515625-6.097657 3.84375-9.886719-5.332031-12.117188-11.070312-23.523438-17.046875-33.894531-5.304687-9.199219-14.304687-15.582031-24.488281-17.710938v-13.496093c0-12.746094-10.371094-23.117188-23.117188-23.117188h-53.339844c-12.746093 0-23.117187 10.371094-23.117187 23.117188v13.492187c-6.398437 1.324219-12.367187 4.324219-17.285156 8.785156-5.667969 5.136719-11.03125 9.683594-19.136719 9.683594h-82.820312c-5.449219 0-10.675782-2.015625-14.710938-5.675781-6.511719-5.898438-12.867188-10.960938-21.710938-12.792969v-13.492187c0-12.746094-10.371093-23.117188-23.117187-23.117188h-53.339844c-12.746093 0-23.117187 10.371094-23.117187 23.117188v13.5c-10.183594 2.128906-19.183594 8.511718-24.488282 17.707031-17.042968 29.558593-46.574218 92.429687-52.910156 181.386719-.292968 4.132812 2.816406 7.71875 6.949219 8.015624zm340.6875-220.609374c0-4.472657 3.640625-8.117188 8.113281-8.117188h53.34375c4.472656 0 8.117188 3.644531 8.117188 8.117188v12.71875h-69.578125v-12.71875zm-255.242187 0c0-4.472657 3.644531-8.117188 8.117187-8.117188h53.34375c4.472656 0 8.113281 3.644531 8.113281 8.117188v12.71875h-69.574218zm0 0"/><path d="m46.3125 360.757812c4.648438 1.265626 9.734375 1.945313 15.296875 1.945313 35.632813 0 78.296875-30.855469 108.804687-80.445313 3.96875-6.449218 11.152344-10.457031 18.75-10.457031h133.660157c7.597656 0 14.78125 4.007813 18.75 10.457031 30.511719 49.59375 73.171875 80.449219 108.804687 80.445313 5.261719 0 10.375-.671875 15.269532-2.058594 17.3125-4.898437 46.355468-23.238281 46.355468-91.035156 0-52.367187-8.433594-103.117187-25.058594-150.835937-1.363281-3.914063-5.644531-5.976563-9.550781-4.613282-3.914062 1.359375-5.980469 5.636719-4.617187 9.550782 16.074218 46.125 24.226562 95.214843 24.226562 145.898437 0 42.933594-12.585937 70.136719-35.441406 76.605469-14.46875 4.09375-32.824219-.296875-51.6875-12.359375-20.144531-12.886719-39.863281-34-55.523438-59.457031-6.679687-10.855469-18.757812-17.597657-31.523437-17.597657h-133.664063c-12.765624 0-24.847656 6.742188-31.523437 17.597657-15.664063 25.457031-35.382813 46.570312-55.527344 59.457031-18.859375 12.0625-37.214843 16.453125-51.6875 12.359375-32.53125-9.207032-35.613281-52.074219-35.417969-79.917969.027344-4.140625-3.308593-7.523437-7.449218-7.550781-4.105469-.042969-7.5234378 3.304687-7.55468775 7.445312-.26171825 35.675782 8.63281275 84.3125 46.30859375 94.566406zm0 0"/></svg>